<svg xmlns="http://www.w3.org/2000/svg" xmlns:xlink="http://www.w3.org/1999/xlink" width="500" zoomAndPan="magnify" viewBox="0 0 375 374.999991" height="500" preserveAspectRatio="xMidYMid meet" version="1.0"><defs><clipPath id="1f4b2732fa"><path d="M 142.402344 184 L 218 184 L 218 250.796875 L 142.402344 250.796875 Z M 142.402344 184 " clip-rule="nonzero"/></clipPath><clipPath id="17d566ad17"><path d="M 0.234375 0.234375 L 360.765625 0.234375 L 360.765625 360.765625 L 0.234375 360.765625 Z M 0.234375 0.234375 " clip-rule="nonzero"/></clipPath><clipPath id="86ec0d683d"><rect x="0" width="361" y="0" height="361"/></clipPath></defs><g transform="matrix(1, 0, 0, 1, 7, 7)"><g clip-path="url(#86ec0d683d)"><path fill="#6f3ce3" d="M 200.984375 180.082031 C 200.984375 185.71875 201.0625 191.351562 200.984375 196.988281 C 200.9375 197.640625 200.867188 198.292969 200.761719 198.941406 C 200.65625 199.589844 200.519531 200.230469 200.355469 200.867188 C 200.191406 201.5 199.996094 202.125 199.773438 202.742188 C 199.546875 203.359375 199.296875 203.964844 199.015625 204.558594 C 198.734375 205.152344 198.425781 205.730469 198.089844 206.292969 C 197.753906 206.859375 197.394531 207.40625 197.007812 207.933594 C 196.621094 208.464844 196.210938 208.976562 195.773438 209.46875 C 195.339844 209.957031 194.882812 210.429688 194.402344 210.878906 C 193.925781 211.324219 193.425781 211.75 192.90625 212.152344 C 192.386719 212.554688 191.851562 212.929688 191.296875 213.28125 C 190.742188 213.632812 190.171875 213.957031 189.585938 214.253906 C 189.003906 214.550781 188.40625 214.820312 187.792969 215.058594 C 187.183594 215.300781 186.5625 215.511719 185.933594 215.695312 C 185.304688 215.878906 184.664062 216.03125 184.019531 216.152344 C 183.375 216.277344 182.726562 216.367188 182.074219 216.429688 C 181.421875 216.492188 180.765625 216.523438 180.109375 216.523438 C 179.453125 216.523438 178.800781 216.492188 178.144531 216.429688 C 177.492188 216.367188 176.84375 216.277344 176.199219 216.152344 C 175.554688 216.03125 174.917969 215.878906 174.285156 215.695312 C 173.65625 215.511719 173.035156 215.300781 172.425781 215.058594 C 171.816406 214.820312 171.21875 214.550781 170.632812 214.253906 C 170.046875 213.957031 169.476562 213.632812 168.921875 213.28125 C 168.367188 212.929688 167.832031 212.554688 167.3125 212.152344 C 166.792969 211.75 166.292969 211.324219 165.816406 210.878906 C 165.335938 210.429688 164.878906 209.957031 164.445312 209.46875 C 164.007812 208.976562 163.597656 208.464844 163.210938 207.933594 C 162.824219 207.40625 162.464844 206.859375 162.128906 206.292969 C 161.792969 205.730469 161.484375 205.152344 161.203125 204.558594 C 160.921875 203.964844 160.671875 203.359375 160.449219 202.742188 C 160.222656 202.125 160.027344 201.5 159.863281 200.867188 C 159.699219 200.230469 159.5625 199.589844 159.460938 198.941406 C 159.355469 198.292969 159.28125 197.640625 159.238281 196.988281 C 159.125 185.65625 159.125 174.296875 159.238281 162.902344 C 159.265625 161.808594 159.378906 160.71875 159.578125 159.640625 C 159.777344 158.5625 160.058594 157.507812 160.425781 156.472656 C 160.792969 155.4375 161.234375 154.4375 161.757812 153.476562 C 162.28125 152.511719 162.875 151.59375 163.542969 150.722656 C 164.207031 149.851562 164.941406 149.039062 165.734375 148.28125 C 166.527344 147.527344 167.378906 146.839844 168.28125 146.214844 C 169.183594 145.59375 170.128906 145.046875 171.121094 144.574219 C 172.109375 144.097656 173.128906 143.707031 174.179688 143.394531 C 175.230469 143.082031 176.300781 142.851562 177.386719 142.707031 C 178.476562 142.5625 179.566406 142.503906 180.664062 142.53125 C 181.761719 142.558594 182.847656 142.667969 183.925781 142.867188 C 185.003906 143.066406 186.0625 143.347656 187.097656 143.710938 C 188.128906 144.074219 189.128906 144.519531 190.09375 145.039062 C 191.058594 145.5625 191.976562 146.15625 192.847656 146.820312 C 193.71875 147.488281 194.535156 148.214844 195.292969 149.011719 C 196.046875 149.804688 196.738281 150.652344 197.359375 151.554688 C 198.546875 153.253906 199.449219 155.089844 200.070312 157.066406 C 200.691406 159.042969 201 161.066406 200.996094 163.136719 C 200.996094 168.8125 200.984375 174.449219 200.984375 180.082031 Z M 200.984375 180.082031 " fill-opacity="1" fill-rule="nonzero"/><g clip-path="url(#1f4b2732fa)"><path fill="#6f3ce3" d="M 184.417969 234 L 184.417969 242.238281 C 185.101562 242.347656 185.792969 242.421875 186.484375 242.460938 C 190.695312 242.460938 194.890625 242.460938 199.101562 242.460938 C 199.980469 242.433594 200.851562 242.503906 201.714844 242.667969 C 202.21875 242.753906 202.691406 242.925781 203.136719 243.183594 C 203.578125 243.445312 203.957031 243.773438 204.28125 244.171875 C 204.601562 244.570312 204.839844 245.011719 205 245.5 C 205.160156 245.984375 205.230469 246.484375 205.207031 246.996094 C 205.15625 247.5 205.027344 247.980469 204.808594 248.4375 C 204.59375 248.898438 204.308594 249.304688 203.949219 249.664062 C 203.59375 250.019531 203.183594 250.308594 202.726562 250.523438 C 202.269531 250.738281 201.789062 250.871094 201.285156 250.917969 C 200.65625 250.957031 200.027344 250.957031 199.402344 250.917969 C 186.5625 250.917969 173.679688 250.917969 160.753906 250.917969 C 160.039062 250.976562 159.324219 250.976562 158.609375 250.917969 C 158.136719 250.832031 157.695312 250.675781 157.273438 250.441406 C 156.855469 250.210938 156.484375 249.917969 156.164062 249.5625 C 155.84375 249.207031 155.585938 248.808594 155.398438 248.371094 C 155.207031 247.929688 155.09375 247.472656 155.054688 246.996094 C 155.027344 246.5 155.085938 246.015625 155.230469 245.539062 C 155.378906 245.0625 155.601562 244.628906 155.902344 244.234375 C 156.207031 243.839844 156.566406 243.511719 156.988281 243.246094 C 157.410156 242.980469 157.863281 242.796875 158.347656 242.695312 C 159.210938 242.511719 160.082031 242.433594 160.964844 242.460938 C 164.886719 242.460938 168.808594 242.460938 172.730469 242.460938 L 175.554688 242.460938 L 175.554688 234.15625 C 173.160156 233.554688 170.78125 233.148438 168.519531 232.367188 C 155.210938 227.765625 146.84375 218.480469 143.390625 204.765625 C 142.949219 202.9375 142.707031 201.078125 142.660156 199.195312 C 142.515625 195.613281 142.503906 192.03125 142.566406 188.449219 C 142.5625 188.175781 142.585938 187.90625 142.636719 187.636719 C 142.683594 187.367188 142.757812 187.109375 142.859375 186.855469 C 142.960938 186.601562 143.082031 186.359375 143.230469 186.128906 C 143.378906 185.898438 143.550781 185.6875 143.738281 185.492188 C 143.929688 185.296875 144.136719 185.121094 144.359375 184.964844 C 144.585938 184.808594 144.824219 184.675781 145.074219 184.570312 C 145.324219 184.460938 145.582031 184.378906 145.851562 184.320312 C 146.117188 184.261719 146.386719 184.230469 146.660156 184.226562 C 146.933594 184.222656 147.203125 184.246094 147.472656 184.292969 C 147.742188 184.34375 148.003906 184.417969 148.253906 184.519531 C 148.507812 184.617188 148.75 184.742188 148.980469 184.890625 C 149.210938 185.039062 149.421875 185.207031 149.617188 185.398438 C 149.816406 185.589844 149.992188 185.796875 150.144531 186.019531 C 150.300781 186.246094 150.433594 186.484375 150.542969 186.734375 C 150.648438 186.984375 150.734375 187.242188 150.789062 187.507812 C 150.847656 187.777344 150.878906 188.046875 150.882812 188.320312 C 151.039062 191.351562 150.882812 194.398438 150.972656 197.472656 C 151.25 208.441406 156.519531 216.480469 165.707031 222.078125 C 167.109375 222.878906 168.5625 223.558594 170.078125 224.117188 C 171.589844 224.675781 173.136719 225.101562 174.722656 225.402344 C 176.308594 225.703125 177.90625 225.867188 179.519531 225.898438 C 181.128906 225.933594 182.734375 225.832031 184.328125 225.597656 C 185.925781 225.359375 187.488281 224.992188 189.023438 224.496094 C 190.558594 224 192.039062 223.378906 193.46875 222.636719 C 194.902344 221.890625 196.257812 221.03125 197.546875 220.0625 C 198.832031 219.089844 200.03125 218.019531 201.140625 216.847656 C 202.417969 215.554688 203.558594 214.148438 204.5625 212.632812 C 205.566406 211.117188 206.414062 209.515625 207.109375 207.835938 C 207.800781 206.15625 208.324219 204.421875 208.679688 202.640625 C 209.035156 200.855469 209.214844 199.054688 209.21875 197.234375 C 209.21875 194.738281 209.21875 192.226562 209.21875 189.71875 C 209.195312 189.003906 209.242188 188.292969 209.363281 187.585938 C 209.457031 187.101562 209.632812 186.648438 209.890625 186.226562 C 210.148438 185.804688 210.46875 185.441406 210.855469 185.132812 C 211.242188 184.828125 211.671875 184.597656 212.140625 184.441406 C 212.609375 184.289062 213.09375 184.222656 213.585938 184.238281 C 214.085938 184.238281 214.566406 184.328125 215.027344 184.511719 C 215.492188 184.695312 215.90625 184.953125 216.269531 185.296875 C 216.636719 185.636719 216.925781 186.03125 217.136719 186.480469 C 217.351562 186.929688 217.476562 187.402344 217.507812 187.902344 C 218.542969 201.734375 216.34375 214.507812 205.386719 224.402344 C 202.675781 226.90625 199.65625 228.953125 196.332031 230.550781 C 193.003906 232.148438 189.515625 233.222656 185.867188 233.777344 C 185.488281 233.789062 185.058594 233.921875 184.417969 234 Z M 184.417969 234 " fill-opacity="1" fill-rule="nonzero"/></g><g clip-path="url(#17d566ad17)"><path fill="#6f3ce3" d="M 360.765625 180.585938 C 360.742188 198.894531 353.65625 216.0625 340.800781 228.925781 L 228.90625 340.800781 C 216.832031 352.882812 200.945312 359.867188 183.867188 360.683594 L 183.867188 286.734375 C 183.867188 286.710938 183.859375 286.6875 183.859375 286.664062 C 235.625 284.6875 277.410156 237.265625 277.410156 179.558594 L 277.410156 154.476562 C 277.410156 145.132812 276.3125 136.054688 274.261719 127.402344 C 327.660156 138.898438 360.757812 159.183594 360.757812 180.507812 C 360.757812 180.535156 360.761719 180.558594 360.765625 180.585938 Z M 83.589844 179.558594 L 83.589844 154.476562 C 83.589844 145.132812 84.6875 136.054688 86.742188 127.402344 C 33.339844 138.898438 0.242188 159.183594 0.242188 180.507812 C 0.242188 180.535156 0.238281 180.558594 0.234375 180.585938 C 0.257812 198.894531 7.34375 216.0625 20.203125 228.925781 L 132.09375 340.796875 C 144.171875 352.882812 160.058594 359.867188 177.132812 360.683594 L 177.132812 286.734375 C 177.132812 286.710938 177.140625 286.6875 177.140625 286.664062 C 125.375 284.6875 83.589844 237.265625 83.589844 179.558594 Z M 356.574219 156.761719 C 353.207031 147.585938 347.886719 139.183594 340.800781 132.089844 L 228.90625 20.21875 C 216.03125 7.339844 198.839844 0.246094 180.5 0.246094 C 162.160156 0.246094 144.96875 7.339844 132.09375 20.21875 L 20.199219 132.09375 C 13.113281 139.183594 7.789062 147.585938 4.425781 156.761719 C 19.019531 141.566406 47.679688 128.730469 86.976562 120.46875 C 115.246094 114.523438 147.585938 111.382812 180.5 111.382812 C 213.414062 111.382812 245.753906 114.523438 274.023438 120.46875 C 313.316406 128.730469 341.980469 141.566406 356.574219 156.761719 Z M 356.574219 156.761719 " fill-opacity="1" fill-rule="nonzero"/></g></g></g></svg>